<svg xmlns="http://www.w3.org/2000/svg" xmlns:xlink="http://www.w3.org/1999/xlink" version="1.1" width="2000" height="500" viewBox=" 0 0 2000 500"><g transform="matrix(1,0,0,1,-1.2121212121212466,-1.0671459234805525)"><svg xmlns="http://www.w3.org/2000/svg" xmlns:xlink="http://www.w3.org/1999/xlink" viewBox="0 0 396 122" data-background-color="#343a40" preserveAspectRatio="xMidYMid meet" height="616" width="2000"><g id="tight-bounds" transform="matrix(1,0,0,1,0.2400000000000091,0.21135032900102146)"><svg viewBox="0 0 395.52 121.57729934199793" height="121.57729934199793" width="395.52"><g><svg viewBox="0 0 395.52 121.57729934199793" height="121.57729934199793" width="395.52"><g><svg viewBox="0 0 395.52 121.57729934199793" height="121.57729934199793" width="395.52"><g id="textblocktransform"><svg viewBox="0 0 395.52 121.57729934199793" height="121.57729934199793" width="395.52" id="textblock"><g><rect width="395.52" height="84.39624967099897" fill="none" stroke-width="9.018103199999999" stroke="#343a40" data-fill-palette-color="none" data-stroke-palette-color="tertiary"/><rect width="395.52" height="37.181049670998966" y="84.39624967099897" fill="#343a40" data-fill-palette-color="tertiary"/></g><g><svg viewBox="0 0 395.52 84.39624967099897" height="84.39624967099897" width="395.52"><g transform="matrix(1,0,0,1,23.607599999999998,23.6076)"><svg width="348.3048" viewBox="-3.86 -37.99 448.91 47.93" height="37.181049670998966" data-palette-color="#ffffff"><path d="M0.24 9.94L0.24 9.94Q-1.1 9.94-2.11 9.78-3.13 9.62-3.86 9.35L-3.86 9.35-3.86 4.44Q-3.08 4.64-2.17 4.79-1.27 4.93-0.24 4.93L-0.24 4.93Q1.1 4.93 2.2 4.42 3.3 3.91 3.94 2.56 4.59 1.22 4.59-1.22L4.59-1.22 4.59-35.69 10.45-35.69 10.45-1.42Q10.45 2.56 9.18 5.07 7.91 7.57 5.62 8.75 3.32 9.94 0.24 9.94ZM43.02-13.57L43.02-13.57Q43.02-10.21 42.14-7.59 41.26-4.98 39.57-3.19 37.89-1.39 35.52-0.45 33.15 0.49 30.17 0.49L30.17 0.49Q27.39 0.49 25.07-0.45 22.75-1.39 21.05-3.19 19.36-4.98 18.43-7.59 17.5-10.21 17.5-13.57L17.5-13.57Q17.5-18.04 19.05-21.15 20.6-24.27 23.48-25.9 26.36-27.54 30.34-27.54L30.34-27.54Q34.08-27.54 36.94-25.9 39.79-24.27 41.4-21.14 43.02-18.02 43.02-13.57ZM23.41-13.57L23.41-13.57Q23.41-10.62 24.13-8.52 24.85-6.42 26.36-5.31 27.88-4.2 30.27-4.2L30.27-4.2Q32.66-4.2 34.18-5.31 35.69-6.42 36.4-8.52 37.11-10.62 37.11-13.57L37.11-13.57Q37.11-16.53 36.4-18.59 35.69-20.65 34.18-21.74 32.66-22.83 30.25-22.83L30.25-22.83Q26.68-22.83 25.05-20.43 23.41-18.04 23.41-13.57ZM60.2-27.54L60.2-27.54Q65.33-27.54 67.95-25.27 70.58-23 70.58-18.19L70.58-18.19 70.58 0 66.5 0 65.4-3.83 65.2-3.83Q64.06-2.37 62.84-1.42 61.62-0.46 60.02 0.01 58.42 0.49 56.12 0.49L56.12 0.49Q53.71 0.49 51.8-0.4 49.9-1.29 48.8-3.13 47.7-4.96 47.7-7.76L47.7-7.76Q47.7-11.94 50.81-14.04 53.93-16.14 60.22-16.36L60.22-16.36 64.91-16.53 64.91-17.94Q64.91-20.75 63.61-21.95 62.3-23.14 59.93-23.14L59.93-23.14Q57.91-23.14 56-22.56 54.1-21.97 52.29-21.12L52.29-21.12 50.43-25.17Q52.41-26.22 54.94-26.88 57.47-27.54 60.2-27.54ZM64.89-10.57L64.89-12.92 61.4-12.79Q57.1-12.65 55.37-11.33 53.63-10.01 53.63-7.71L53.63-7.71Q53.63-5.71 54.83-4.8 56.03-3.88 57.98-3.88L57.98-3.88Q60.96-3.88 62.92-5.58 64.89-7.28 64.89-10.57L64.89-10.57ZM53.34-30.32L50.31-30.32Q50.46-32.03 50.95-33.31 51.44-34.59 52.23-35.46 53.02-36.33 54.06-36.77 55.1-37.21 56.32-37.21L56.32-37.21Q57.39-37.21 58.38-36.79 59.37-36.38 60.31-35.83 61.25-35.28 62.14-34.86 63.03-34.45 63.86-34.45L63.86-34.45Q64.81-34.45 65.49-35.13 66.16-35.82 66.5-37.26L66.5-37.26 69.5-37.26Q69.21-33.89 67.57-32.12 65.94-30.35 63.5-30.35L63.5-30.35Q62.47-30.35 61.48-30.77 60.49-31.2 59.57-31.74 58.64-32.28 57.73-32.69 56.83-33.11 55.98-33.11L55.98-33.11Q55-33.11 54.33-32.42 53.66-31.74 53.34-30.32L53.34-30.32ZM102.53-13.57L102.53-13.57Q102.53-10.21 101.65-7.59 100.77-4.98 99.09-3.19 97.4-1.39 95.04-0.45 92.67 0.49 89.69 0.49L89.69 0.49Q86.91 0.49 84.59-0.45 82.27-1.39 80.57-3.19 78.87-4.98 77.95-7.59 77.02-10.21 77.02-13.57L77.02-13.57Q77.02-18.04 78.57-21.15 80.12-24.27 83-25.9 85.88-27.54 89.86-27.54L89.86-27.54Q93.6-27.54 96.45-25.9 99.31-24.27 100.92-21.14 102.53-18.02 102.53-13.57ZM82.93-13.57L82.93-13.57Q82.93-10.62 83.65-8.52 84.37-6.42 85.88-5.31 87.39-4.2 89.79-4.2L89.79-4.2Q92.18-4.2 93.69-5.31 95.21-6.42 95.92-8.52 96.62-10.62 96.62-13.57L96.62-13.57Q96.62-16.53 95.92-18.59 95.21-20.65 93.69-21.74 92.18-22.83 89.76-22.83L89.76-22.83Q86.2-22.83 84.56-20.43 82.93-18.04 82.93-13.57ZM152.48-35.69L152.48 0 145.28 0 127.8-28.49 127.58-28.49Q127.67-27.05 127.76-25.44 127.84-23.83 127.9-22.12 127.97-20.41 128.01-18.65L128.01-18.65 128.01 0 122.69 0 122.69-35.69 129.85-35.69 147.3-7.4 147.47-7.4Q147.42-8.64 147.35-10.25 147.28-11.87 147.22-13.59 147.16-15.31 147.13-16.92L147.13-16.92 147.13-35.69 152.48-35.69ZM179.06-27.03L184.82-27.03 184.82 0 180.31 0 179.53-3.64 179.21-3.64Q178.35-2.25 177.04-1.33 175.72-0.42 174.11 0.04 172.49 0.49 170.71 0.49L170.71 0.49Q167.66 0.49 165.5-0.55 163.34-1.59 162.19-3.76 161.04-5.93 161.04-9.38L161.04-9.38 161.04-27.03 166.81-27.03 166.81-10.45Q166.81-7.3 168.09-5.74 169.37-4.17 172.08-4.17L172.08-4.17Q174.69-4.17 176.23-5.25 177.77-6.32 178.42-8.42 179.06-10.52 179.06-13.57L179.06-13.57 179.06-27.03ZM207.11-27.54L207.11-27.54Q211.68-27.54 214.23-25.18 216.78-22.83 216.78-17.63L216.78-17.63 216.78 0 211.04 0 211.04-16.55Q211.04-19.7 209.75-21.28 208.45-22.85 205.74-22.85L205.74-22.85Q201.81-22.85 200.29-20.43 198.76-18.02 198.76-13.43L198.76-13.43 198.76 0 193.02 0 193.02-27.03 197.49-27.03 198.3-23.36 198.62-23.36Q199.49-24.78 200.8-25.7 202.11-26.61 203.73-27.08 205.35-27.54 207.11-27.54ZM248.71-13.57L248.71-13.57Q248.71-10.21 247.83-7.59 246.95-4.98 245.27-3.19 243.58-1.39 241.22-0.45 238.85 0.49 235.87 0.49L235.87 0.49Q233.09 0.49 230.77-0.45 228.45-1.39 226.75-3.19 225.05-4.98 224.13-7.59 223.2-10.21 223.2-13.57L223.2-13.57Q223.2-18.04 224.75-21.15 226.3-24.27 229.18-25.9 232.06-27.54 236.04-27.54L236.04-27.54Q239.77-27.54 242.63-25.9 245.49-24.27 247.1-21.14 248.71-18.02 248.71-13.57ZM229.11-13.57L229.11-13.57Q229.11-10.62 229.83-8.52 230.55-6.42 232.06-5.31 233.57-4.2 235.97-4.2L235.97-4.2Q238.36-4.2 239.87-5.31 241.39-6.42 242.09-8.52 242.8-10.62 242.8-13.57L242.8-13.57Q242.8-16.53 242.09-18.59 241.39-20.65 239.87-21.74 238.36-22.83 235.94-22.83L235.94-22.83Q232.38-22.83 230.74-20.43 229.11-18.04 229.11-13.57ZM289.33-35.69L295.34-35.69 282.86 0 276.66 0 264.18-35.69 270.19-35.69 277.71-13.33Q278.05-12.35 278.45-10.96 278.86-9.57 279.21-8.15 279.56-6.74 279.76-5.64L279.76-5.64Q279.96-6.74 280.31-8.15 280.66-9.57 281.05-10.96 281.44-12.35 281.79-13.35L281.79-13.35 289.33-35.69ZM310.03-27.54L310.03-27.54Q315.16-27.54 317.78-25.27 320.41-23 320.41-18.19L320.41-18.19 320.41 0 316.33 0 315.23-3.83 315.04-3.83Q313.89-2.37 312.67-1.42 311.45-0.46 309.85 0.01 308.25 0.49 305.95 0.49L305.95 0.49Q303.54 0.49 301.63-0.4 299.73-1.29 298.63-3.13 297.53-4.96 297.53-7.76L297.53-7.76Q297.53-11.94 300.64-14.04 303.76-16.14 310.06-16.36L310.06-16.36 314.74-16.53 314.74-17.94Q314.74-20.75 313.44-21.95 312.13-23.14 309.76-23.14L309.76-23.14Q307.74-23.14 305.83-22.56 303.93-21.97 302.12-21.12L302.12-21.12 300.27-25.17Q302.24-26.22 304.77-26.88 307.3-27.54 310.03-27.54ZM314.72-10.57L314.72-12.92 311.23-12.79Q306.93-12.65 305.2-11.33 303.46-10.01 303.46-7.71L303.46-7.71Q303.46-5.71 304.66-4.8 305.86-3.88 307.81-3.88L307.81-3.88Q310.79-3.88 312.75-5.58 314.72-7.28 314.72-10.57L314.72-10.57ZM334.2-37.99L334.2 0 328.44 0 328.44-37.99 334.2-37.99ZM353.14-27.54L353.14-27.54Q356.75-27.54 359.34-26.05 361.93-24.56 363.32-21.83 364.71-19.09 364.71-15.28L364.71-15.28 364.71-12.21 346.67-12.21Q346.77-8.28 348.78-6.15 350.8-4.03 354.44-4.03L354.44-4.03Q357.02-4.03 359.09-4.53 361.15-5.03 363.35-6.01L363.35-6.01 363.35-1.34Q361.32-0.39 359.22 0.05 357.12 0.49 354.19 0.49L354.19 0.49Q350.21 0.49 347.2-1.06 344.18-2.61 342.48-5.69 340.79-8.76 340.79-13.33L340.79-13.33Q340.79-17.87 342.33-21.04 343.86-24.22 346.65-25.88 349.43-27.54 353.14-27.54ZM353.14-23.22L353.14-23.22Q350.43-23.22 348.76-21.46 347.09-19.7 346.79-16.31L346.79-16.31 359.1-16.31Q359.07-18.33 358.43-19.9 357.78-21.46 356.47-22.34 355.17-23.22 353.14-23.22ZM385.27-27.54L385.27-27.54Q389.83-27.54 392.38-25.18 394.94-22.83 394.94-17.63L394.94-17.63 394.94 0 389.2 0 389.2-16.55Q389.2-19.7 387.9-21.28 386.61-22.85 383.9-22.85L383.9-22.85Q379.97-22.85 378.44-20.43 376.92-18.02 376.92-13.43L376.92-13.43 376.92 0 371.18 0 371.18-27.03 375.65-27.03 376.45-23.36 376.77-23.36Q377.65-24.78 378.96-25.7 380.26-26.61 381.89-27.08 383.51-27.54 385.27-27.54ZM413-4.15L413-4.15Q414.12-4.15 415.22-4.36 416.32-4.57 417.22-4.86L417.22-4.86 417.22-0.51Q416.27-0.1 414.76 0.2 413.24 0.49 411.61 0.49L411.61 0.49Q409.31 0.49 407.48-0.28 405.65-1.05 404.58-2.93 403.5-4.81 403.5-8.13L403.5-8.13 403.5-22.66 399.82-22.66 399.82-25.22 403.77-27.25 405.65-33.03 409.26-33.03 409.26-27.03 417-27.03 417-22.66 409.26-22.66 409.26-8.2Q409.26-6.15 410.29-5.15 411.32-4.15 413-4.15ZM433.48-27.54L433.48-27.54Q437.09-27.54 439.68-26.05 442.27-24.56 443.66-21.83 445.05-19.09 445.05-15.28L445.05-15.28 445.05-12.21 427.01-12.21Q427.11-8.28 429.12-6.15 431.14-4.03 434.77-4.03L434.77-4.03Q437.36-4.03 439.43-4.53 441.49-5.03 443.69-6.01L443.69-6.01 443.69-1.34Q441.66-0.39 439.56 0.05 437.46 0.49 434.53 0.49L434.53 0.49Q430.55 0.49 427.54-1.06 424.52-2.61 422.82-5.69 421.13-8.76 421.13-13.33L421.13-13.33Q421.13-17.87 422.67-21.04 424.2-24.22 426.99-25.88 429.77-27.54 433.48-27.54ZM433.48-23.22L433.48-23.22Q430.77-23.22 429.1-21.46 427.43-19.7 427.13-16.31L427.13-16.31 439.44-16.31Q439.41-18.33 438.77-19.9 438.12-21.46 436.81-22.34 435.51-23.22 433.48-23.22Z" opacity="1" transform="matrix(1,0,0,1,0,0)" fill="#343a40" class="wordmark-text-0" data-fill-palette-color="primary" id="text-0"/></svg></g></svg></g></svg></g></svg></g></svg></g><defs fill="#343a40"/></svg><rect width="395.52" height="121.57729934199793" fill="none" stroke="none" visibility="hidden"/></g></svg></g></svg>
